<mxfile host="app.diagrams.net" agent="Mozilla/5.0 (Windows NT 10.0; Win64; x64) AppleWebKit/537.36 (KHTML, like Gecko) Chrome/137.0.0.0 Safari/537.36" border="50" scale="3" compressed="false" locked="false" version="27.1.6">
  <diagram name="Blank" id="YmL12bMKpDGza6XwsDPr">
    <mxGraphModel dx="2866" dy="1511" grid="0" gridSize="10" guides="1" tooltips="1" connect="1" arrows="1" fold="1" page="0" pageScale="1" pageWidth="827" pageHeight="1169" background="none" math="1" shadow="0">
      <root>
        <mxCell id="X5NqExCQtvZxIxQ7pmgY-0" />
        <mxCell id="1" parent="X5NqExCQtvZxIxQ7pmgY-0" />
        <mxCell id="-n03L4gZZ8u75mCyDfgK-18" style="edgeStyle=orthogonalEdgeStyle;rounded=0;orthogonalLoop=1;jettySize=auto;html=1;exitX=0.5;exitY=1;exitDx=0;exitDy=0;" edge="1" parent="1" source="-n03L4gZZ8u75mCyDfgK-5" target="-n03L4gZZ8u75mCyDfgK-17">
          <mxGeometry relative="1" as="geometry" />
        </mxCell>
        <mxCell id="-n03L4gZZ8u75mCyDfgK-26" style="edgeStyle=orthogonalEdgeStyle;rounded=0;orthogonalLoop=1;jettySize=auto;html=1;" edge="1" parent="1" source="-n03L4gZZ8u75mCyDfgK-5" target="-n03L4gZZ8u75mCyDfgK-22">
          <mxGeometry relative="1" as="geometry" />
        </mxCell>
        <mxCell id="-n03L4gZZ8u75mCyDfgK-27" style="edgeStyle=orthogonalEdgeStyle;rounded=0;orthogonalLoop=1;jettySize=auto;html=1;entryX=0.5;entryY=0;entryDx=0;entryDy=0;" edge="1" parent="1" source="-n03L4gZZ8u75mCyDfgK-5" target="-n03L4gZZ8u75mCyDfgK-23">
          <mxGeometry relative="1" as="geometry" />
        </mxCell>
        <mxCell id="-n03L4gZZ8u75mCyDfgK-28" style="edgeStyle=orthogonalEdgeStyle;rounded=0;orthogonalLoop=1;jettySize=auto;html=1;entryX=0.5;entryY=0;entryDx=0;entryDy=0;" edge="1" parent="1" source="-n03L4gZZ8u75mCyDfgK-5" target="-n03L4gZZ8u75mCyDfgK-24">
          <mxGeometry relative="1" as="geometry" />
        </mxCell>
        <mxCell id="-n03L4gZZ8u75mCyDfgK-29" style="edgeStyle=orthogonalEdgeStyle;rounded=0;orthogonalLoop=1;jettySize=auto;html=1;entryX=0.5;entryY=0;entryDx=0;entryDy=0;" edge="1" parent="1" source="-n03L4gZZ8u75mCyDfgK-5" target="-n03L4gZZ8u75mCyDfgK-11">
          <mxGeometry relative="1" as="geometry" />
        </mxCell>
        <mxCell id="-n03L4gZZ8u75mCyDfgK-30" style="edgeStyle=orthogonalEdgeStyle;rounded=0;orthogonalLoop=1;jettySize=auto;html=1;" edge="1" parent="1" source="-n03L4gZZ8u75mCyDfgK-5" target="-n03L4gZZ8u75mCyDfgK-9">
          <mxGeometry relative="1" as="geometry" />
        </mxCell>
        <mxCell id="-n03L4gZZ8u75mCyDfgK-31" style="edgeStyle=orthogonalEdgeStyle;rounded=0;orthogonalLoop=1;jettySize=auto;html=1;entryX=0.5;entryY=0;entryDx=0;entryDy=0;" edge="1" parent="1" source="-n03L4gZZ8u75mCyDfgK-5" target="-n03L4gZZ8u75mCyDfgK-7">
          <mxGeometry relative="1" as="geometry" />
        </mxCell>
        <UserObject label="功能模块" name="Tessa Miller" position="CFO" location="Office 1" email="me@example.com" placeholders="1" id="-n03L4gZZ8u75mCyDfgK-5">
          <mxCell style="label;whiteSpace=wrap;html=1;rounded=0;glass=0;treeMoving=1;treeFolding=1;container=0;" vertex="1" parent="1">
            <mxGeometry x="335" y="-195" width="180" height="70" as="geometry" />
          </mxCell>
        </UserObject>
        <UserObject label="销售管理" name="Edward Morrison" position="Brand Manager" location="Office 2" email="me@example.com" placeholders="1" id="-n03L4gZZ8u75mCyDfgK-7">
          <mxCell style="label;whiteSpace=wrap;html=1;rounded=0;glass=0;treeFolding=1;treeMoving=1;" vertex="1" parent="1">
            <mxGeometry x="-438" y="-56" width="180" height="80" as="geometry" />
          </mxCell>
        </UserObject>
        <UserObject label="生产管理" name="Evan Valet" position="HR Director" location="Office 4" email="me@example.com" placeholders="1" id="-n03L4gZZ8u75mCyDfgK-9">
          <mxCell style="label;whiteSpace=wrap;html=1;rounded=0;glass=0;treeFolding=1;treeMoving=1;" vertex="1" parent="1">
            <mxGeometry x="-168" y="-53" width="180" height="80" as="geometry" />
          </mxCell>
        </UserObject>
        <UserObject label="采购管理" name="Alison Donovan" position="System Admin" location="Office 3" email="me@example.com" placeholders="1" id="-n03L4gZZ8u75mCyDfgK-11">
          <mxCell style="label;whiteSpace=wrap;html=1;rounded=0;glass=0;" vertex="1" parent="1">
            <mxGeometry x="88" y="-50" width="180" height="80" as="geometry" />
          </mxCell>
        </UserObject>
        <UserObject label="库存管理" name="Alison Donovan" position="System Admin" location="Office 3" email="me@example.com" placeholders="1" id="-n03L4gZZ8u75mCyDfgK-17">
          <mxCell style="label;whiteSpace=wrap;html=1;rounded=0;glass=0;" vertex="1" parent="1">
            <mxGeometry x="335" y="-50" width="180" height="80" as="geometry" />
          </mxCell>
        </UserObject>
        <UserObject label="运输管理" name="Alison Donovan" position="System Admin" location="Office 3" email="me@example.com" placeholders="1" id="-n03L4gZZ8u75mCyDfgK-22">
          <mxCell style="label;whiteSpace=wrap;html=1;rounded=0;glass=0;" vertex="1" parent="1">
            <mxGeometry x="556" y="-53" width="180" height="80" as="geometry" />
          </mxCell>
        </UserObject>
        <UserObject label="客户关系" name="Alison Donovan" position="System Admin" location="Office 3" email="me@example.com" placeholders="1" id="-n03L4gZZ8u75mCyDfgK-23">
          <mxCell style="label;whiteSpace=wrap;html=1;rounded=0;glass=0;" vertex="1" parent="1">
            <mxGeometry x="770" y="-53" width="180" height="80" as="geometry" />
          </mxCell>
        </UserObject>
        <UserObject label="系统功能" name="Alison Donovan" position="System Admin" location="Office 3" email="me@example.com" placeholders="1" id="-n03L4gZZ8u75mCyDfgK-24">
          <mxCell style="label;whiteSpace=wrap;html=1;rounded=0;glass=0;" vertex="1" parent="1">
            <mxGeometry x="974" y="-53" width="180" height="80" as="geometry" />
          </mxCell>
        </UserObject>
      </root>
    </mxGraphModel>
  </diagram>
</mxfile>
